<svg width="41" height="40" viewBox="0 0 41 40" fill="none" xmlns="http://www.w3.org/2000/svg">
<path d="M36.7262 17.5735H36.7268C37.9976 17.5719 39.0298 18.6032 39.0319 19.8785C39.0315 20.5137 38.7734 21.092 38.355 21.5108C37.9354 21.931 37.3615 22.1883 36.7279 22.1883L36.7272 22.1883L23.5004 22.1976L22.5023 22.1983L22.5016 23.1975L22.4923 36.4371C22.4923 36.4374 22.4923 36.4376 22.4923 36.4378C22.4905 37.0735 22.2335 37.6503 21.8156 38.0687C21.3953 38.4894 20.8197 38.7478 20.1863 38.7462L20.1852 38.7462C18.9111 38.7445 17.8808 37.7111 17.8824 36.4388L17.8824 36.4382L17.8918 23.206L17.8926 22.204L16.8917 22.2047L3.67411 22.2141L3.6736 22.2141C2.40246 22.2157 1.37029 21.1841 1.36864 19.9088C1.367 18.6327 2.39869 17.6008 3.6735 17.5991C3.67355 17.5991 3.6736 17.5991 3.67365 17.5991L16.8999 17.5898L17.898 17.5891L17.8987 16.5899L17.908 3.34895C17.908 3.34886 17.908 3.34877 17.908 3.34868C17.9098 2.07274 18.9401 1.04011 20.2145 1.04139C21.4869 1.04514 22.5179 2.0794 22.5179 3.35014L22.5085 16.5817L22.5077 17.5837L23.5086 17.583L36.7262 17.5735Z" fill="#737373" stroke="#F6F6F6" stroke-width="2"/>
</svg>
