<svg width="13" height="13" viewBox="0 0 13 13" fill="none" xmlns="http://www.w3.org/2000/svg">
<g clip-path="url(#clip0_141_818)">
<path d="M11.099 1.90344C8.56434 -0.631226 4.43881 -0.631226 1.90414 1.90344C0.676337 3.13173 0 4.76444 0 6.50087C0 8.2373 0.676337 9.87001 1.90414 11.0978C3.17173 12.3654 4.83666 12.9989 6.50156 12.9989C8.16647 12.9989 9.83142 12.3654 11.099 11.0978C13.6337 8.56314 13.6337 4.43859 11.099 1.90344ZM10.3869 10.3857C8.24454 12.5281 4.75858 12.5281 2.61622 10.3857C1.5788 9.34828 1.00721 7.96838 1.00721 6.50087C1.00721 5.03335 1.5788 3.65346 2.61622 2.61553C4.75858 0.473175 8.24454 0.473683 10.3869 2.61553C12.5287 4.75788 12.5287 8.24385 10.3869 10.3857Z" fill="#737373"/>
<path d="M8.67156 7.89236L7.24584 6.46867L8.67156 5.04498C8.86796 4.84858 8.86796 4.5298 8.67207 4.33287C8.47516 4.13546 8.15638 4.13596 7.95947 4.33236L6.53276 5.75707L5.10605 4.33236C4.90914 4.13596 4.59036 4.13546 4.39345 4.33287C4.19705 4.52978 4.19705 4.84856 4.39396 5.04498L5.81968 6.46867L4.39396 7.89236C4.19705 8.08876 4.19705 8.40754 4.39345 8.60448C4.49166 8.70317 4.62108 8.75202 4.75002 8.75202C4.87895 8.75202 5.00786 8.70266 5.10607 8.60496L6.53279 7.18025L7.9595 8.60496C8.05771 8.70317 8.18662 8.75202 8.31556 8.75202C8.44449 8.75202 8.57391 8.70266 8.67212 8.60448C8.86847 8.40754 8.86847 8.08876 8.67156 7.89236Z" fill="#737373"/>
</g>
<defs>
<clipPath id="clip0_141_818">
<rect width="13" height="13" fill="white"/>
</clipPath>
</defs>
</svg>
